<svg id="レイヤー_1" data-name="レイヤー 1" xmlns="http://www.w3.org/2000/svg" viewBox="0 0 243.1 122.44"><defs><style>.cls-1{fill:#fdfdfe;}.cls-2{fill:#268d9b;}.cls-3{fill:#fff;}</style></defs><title>bus</title><polygon class="cls-1" points="162.6 118.44 162.6 91.14 216.1 91.14 216.1 112.76 205.37 100.44 173.4 100.44 162.6 118.44"/><path class="cls-2" d="M230.85,110.34h-0.07a1.5,1.5,0,0,1-1.43-1.57c2.16-44.94-3.14-64.83-3.2-65S219,18.2,214.48,9.84c-4-7.5-10-6.85-10.28-6.82H34.8c-8.44,0-12.86,7.38-12.91,7.46A1.5,1.5,0,1,1,19.31,9C19.52,8.61,24.66,0,34.8,0H203.92c1.08-.11,8.45-0.51,13.21,8.39,4.62,8.64,11.63,33.45,11.92,34.5,0.23,0.82,5.49,20.46,3.3,66A1.5,1.5,0,0,1,230.85,110.34Z"/><rect class="cls-3" x="17.4" y="9.94" width="202.6" height="2.8" rx="1.4" ry="1.4"/><path class="cls-2" d="M218.6,13.64H18.8a2.3,2.3,0,0,1,0-4.6H218.6A2.3,2.3,0,0,1,218.6,13.64ZM18.8,10.84a0.5,0.5,0,0,0,0,1H218.6a0.5,0.5,0,0,0,0-1H18.8Z"/><path class="cls-2" d="M79.8,5.9H59.6a3.3,3.3,0,0,1-3.3-3.3V1.8A0.9,0.9,0,0,1,57.2.9h25a0.9,0.9,0,0,1,.9.9V2.6A3.3,3.3,0,0,1,79.8,5.9ZM58.11,2.7a1.5,1.5,0,0,0,1.5,1.4H79.8a1.5,1.5,0,0,0,1.5-1.4H58.11Z"/><path class="cls-2" d="M110.6,5.9H90.4a3.3,3.3,0,0,1-3.3-3.3V1.8A0.9,0.9,0,0,1,88,.9h25a0.9,0.9,0,0,1,.9.9V2.6A3.3,3.3,0,0,1,110.6,5.9ZM88.91,2.7a1.5,1.5,0,0,0,1.5,1.4h20.2a1.5,1.5,0,0,0,1.5-1.4H88.91Z"/><path class="cls-2" d="M143.2,5.9H123a3.3,3.3,0,0,1-3.3-3.3V1.8a0.9,0.9,0,0,1,.9-0.9h25a0.9,0.9,0,0,1,.9.9V2.6A3.3,3.3,0,0,1,143.2,5.9Zm-21.7-3.2A1.5,1.5,0,0,0,123,4.1h20.2a1.5,1.5,0,0,0,1.5-1.4H121.51Z"/><path class="cls-2" d="M173.8,5.9H153.6a3.3,3.3,0,0,1-3.3-3.3V1.8a0.9,0.9,0,0,1,.9-0.9h25a0.9,0.9,0,0,1,.9.9V2.6A3.3,3.3,0,0,1,173.8,5.9Zm-21.7-3.2a1.5,1.5,0,0,0,1.5,1.4h20.2a1.5,1.5,0,0,0,1.5-1.4H152.11Z"/><path class="cls-2" d="M110.6,40.44h-20a3.3,3.3,0,0,1-3.3-3.3V19.34A3.3,3.3,0,0,1,90.6,16h20a3.3,3.3,0,0,1,3.3,3.3v17.8A3.3,3.3,0,0,1,110.6,40.44Zm-20-22.6a1.5,1.5,0,0,0-1.5,1.5v17.8a1.5,1.5,0,0,0,1.5,1.5h20a1.5,1.5,0,0,0,1.5-1.5V19.34a1.5,1.5,0,0,0-1.5-1.5h-20Z"/><path class="cls-2" d="M142.6,40.44h-20a3.3,3.3,0,0,1-3.3-3.3V19.34a3.3,3.3,0,0,1,3.3-3.3h20a3.3,3.3,0,0,1,3.3,3.3v17.8A3.3,3.3,0,0,1,142.6,40.44Zm-20-22.6a1.5,1.5,0,0,0-1.5,1.5v17.8a1.5,1.5,0,0,0,1.5,1.5h20a1.5,1.5,0,0,0,1.5-1.5V19.34a1.5,1.5,0,0,0-1.5-1.5h-20Z"/><path class="cls-2" d="M174.6,40.44h-20a3.3,3.3,0,0,1-3.3-3.3V19.34a3.3,3.3,0,0,1,3.3-3.3h20a3.3,3.3,0,0,1,3.3,3.3v17.8A3.3,3.3,0,0,1,174.6,40.44Zm-20-22.6a1.5,1.5,0,0,0-1.5,1.5v17.8a1.5,1.5,0,0,0,1.5,1.5h20a1.5,1.5,0,0,0,1.5-1.5V19.34a1.5,1.5,0,0,0-1.5-1.5h-20Z"/><path class="cls-2" d="M206.6,40.44h-20a3.3,3.3,0,0,1-3.3-3.3V19.34a3.3,3.3,0,0,1,3.3-3.3h20a3.3,3.3,0,0,1,3.3,3.3v17.8A3.3,3.3,0,0,1,206.6,40.44Zm-20-22.6a1.5,1.5,0,0,0-1.5,1.5v17.8a1.5,1.5,0,0,0,1.5,1.5h20a1.5,1.5,0,0,0,1.5-1.5V19.34a1.5,1.5,0,0,0-1.5-1.5h-20Z"/><path class="cls-2" d="M14.4,112.84a1.5,1.5,0,0,1-1.5-1.5c0-17.81.59-41,.6-41.24t0-.08a193,193,0,0,1,13.93-57.1,1.5,1.5,0,0,1,2.74,1.23A189.79,189.79,0,0,0,16.5,70.21c0,1.08-.6,23.69-0.6,41.12A1.5,1.5,0,0,1,14.4,112.84Z"/><path class="cls-2" d="M163.6,118.44H78a1.5,1.5,0,0,1-1.49-1.32A103.14,103.14,0,0,0,74,104.72c-1.65-6.27-6.12-6.29-6.31-6.28H48c-3.17,0-5.83,1.65-8.38,5.18-2,2.78-4.56,10.58-5.38,13.35A1.5,1.5,0,0,1,32.8,118H30.6a1.5,1.5,0,0,1,0-3h1.09c0.86-2.77,3.27-10.09,5.5-13.18,3.12-4.32,6.66-6.42,10.82-6.42H67.58C70,95.36,75,97.05,76.85,104a115.43,115.43,0,0,1,2.45,11.48h83.21c1.27-3.8,3.73-10.66,5.3-12s4.62-3,6.59-3h32c0.26,0,6.38.82,9.65,10.41a1.5,1.5,0,1,1-2.84,1c-2.47-7.24-6.5-8.27-7.1-8.38H174.4a9.65,9.65,0,0,0-4.61,2.23c-0.84.82-3.12,6.73-4.76,11.74A1.5,1.5,0,0,1,163.6,118.44Z"/><path class="cls-2" d="M158.8,111.84H86.4a3.3,3.3,0,0,1-3.3-3.3v-1.2a3.3,3.3,0,0,1,3.3-3.3h72.4a3.3,3.3,0,0,1,3.3,3.3v1.2A3.3,3.3,0,0,1,158.8,111.84Zm-72.4-6a1.5,1.5,0,0,0-1.5,1.5v1.2a1.5,1.5,0,0,0,1.5,1.5h72.4a1.5,1.5,0,0,0,1.5-1.5v-1.2a1.5,1.5,0,0,0-1.5-1.5H86.4Z"/><path class="cls-2" d="M232.59,101l-1.44-2.63,0,0c0.1-.06,2.35-1.51,2.35-6.8,0-4.92-1.48-5.82-1.5-5.83a0.39,0.39,0,0,0,.12,0L233,82.91c0.57,0.19,3.43,1.5,3.43,8.62S233,100.73,232.59,101Z"/><path class="cls-2" d="M78.2,40.51h-30l-0.22,0a4.24,4.24,0,0,1-2.63-2,3.69,3.69,0,0,1,.07-3.19c1.34-3.12,6.55-15,6.6-15.16A0.91,0.91,0,0,1,52.06,20C52.17,19.82,54.76,16,58.2,16h20a3.3,3.3,0,0,1,3.3,3.3v17.8A3.38,3.38,0,0,1,78.2,40.51Zm-17.3-1.8H78.2a1.58,1.58,0,0,0,1.5-1.57V19.34a1.5,1.5,0,0,0-1.5-1.5h-20c-2,0-4,2.17-4.61,3.09C53.14,22,48.31,33,47,36a2,2,0,0,0-.11,1.69,2.44,2.44,0,0,0,1.37,1H60.9Z"/><path class="cls-2" d="M37.23,40.51H35.1a3.3,3.3,0,0,1-3.3-3.3,0.9,0.9,0,0,1,.07-0.35l7.61-17.8a5.05,5.05,0,0,1,2-2.75A0.9,0.9,0,0,1,42.13,16h5.15l0.22,0a4.24,4.24,0,0,1,2.63,2,3.69,3.69,0,0,1-.07,3.19c-1.34,3.12-6.55,15-6.6,15.16a0.91,0.91,0,0,1-.08.14C43.27,36.73,40.67,40.51,37.23,40.51Zm-3.62-3.14a1.5,1.5,0,0,0,1.49,1.34h2.13c2,0,4-2.17,4.61-3.09,0.46-1,5.29-12.09,6.56-15.07a2,2,0,0,0,.11-1.68,2.42,2.42,0,0,0-1.37-1H42.71c-0.64,0-1,.48-1.57,1.93Z"/><path class="cls-2" d="M20.6,40.64a0.9,0.9,0,0,1,0-1.8c5.65,0,6.52-2.61,6.53-2.64l0-.11c0-.11,4.7-11.11,6.07-15.52,0.68-2.17.28-2.65,0.28-2.65a0.37,0.37,0,0,0-.17,0,0.9,0.9,0,0,1-.25,0H27.9a0.9,0.9,0,1,1,0-1.8H33a2,2,0,0,1,1.8.52c0.79,0.8.84,2.26,0.16,4.45-1.37,4.41-5.78,14.84-6.12,15.65C28.65,37.33,27.23,40.64,20.6,40.64Z"/><path class="cls-3" d="M48.3,43.54h180a1.7,1.7,0,0,1,1.7,1.7h0a1.7,1.7,0,0,1-1.7,1.7H48.3s-13.8-.2-21,9.85-13,24.15-13,24.15S12,82.29,11.7,79.89s6.75-16.95,12.3-24S35.85,43.54,48.3,43.54Z"/><path class="cls-2" d="M13,82.21A2.12,2.12,0,0,1,12,82a2.36,2.36,0,0,1-1.23-2C10.44,77,18,62,23.3,55.33c6-7.62,12.55-12.69,25-12.69h180a2.6,2.6,0,1,1,0,5.2H48.3c-0.15,0-13.44-.06-20.27,9.47-7.06,9.85-12.89,23.83-13,24a0.9,0.9,0,0,1-.37.43A3.71,3.71,0,0,1,13,82.21ZM48.3,44.44c-11.74,0-17.92,4.8-23.59,12S12.36,77.89,12.6,79.77a0.85,0.85,0,0,0,.24.61,1.15,1.15,0,0,0,.72-0.11c0.91-2.14,6.43-14.83,13-24C34,45.95,47.73,46,48.32,46h180a0.8,0.8,0,1,0,0-1.6H48.3Z"/><ellipse class="cls-3" cx="14.85" cy="91.14" rx="3.45" ry="6.45"/><path class="cls-2" d="M14.85,98.49c-2.44,0-4.35-3.23-4.35-7.35s1.91-7.35,4.35-7.35S19.2,87,19.2,91.14,17.29,98.49,14.85,98.49Zm0-12.9c-1.2,0-2.55,2.37-2.55,5.55s1.35,5.55,2.55,5.55,2.55-2.37,2.55-5.55S16.06,85.59,14.85,85.59Z"/><path class="cls-2" d="M28.05,108.54H24.3a0.45,0.45,0,0,1-.45-0.45V83.34c0-.27.63-26.29,3.46-37.61S39.25,13.17,39.34,13a0.45,0.45,0,0,1,.83.36c-0.09.21-9.17,21.4-12,32.63s-3.43,37.14-3.44,37.4v24.29h3.3c1.31,0,3.47-1.36,4.3-2,0.44-.82,3.69-6.89,5.36-9.68,1.91-3.18,6.64-3.22,6.84-3.22H76.2c5.2,0,5.67-3.09,5.7-3.32v-76a0.45,0.45,0,1,1,.9,0V89.52s-0.4,4.16-6.6,4.16H44.55s-4.42,0-6.06,2.78c-1.77,3-5.35,9.66-5.39,9.73a0.45,0.45,0,0,1-.13.15C32.85,106.44,30,108.54,28.05,108.54Z"/><path class="cls-2" d="M76.3,62h0l-8.8-.43h0a2.25,2.25,0,0,1,0-4.5l8.78-.42h0a2.63,2.63,0,0,1,2.27,2.67C78.55,60.57,77.57,62,76.3,62Zm0-4.45L67.52,58a1.35,1.35,0,1,0,0,2.7l8.81,0.43A1.84,1.84,0,0,0,76.3,57.56Z"/><path class="cls-2" d="M209,52.44H189.3a0.45,0.45,0,0,1,0-.9H209A0.45,0.45,0,1,1,209,52.44Z"/><path class="cls-2" d="M209,55.44H189.3a0.45,0.45,0,0,1,0-.9H209A0.45,0.45,0,1,1,209,55.44Z"/><path class="cls-2" d="M209,58.44H189.3a0.45,0.45,0,0,1,0-.9H209A0.45,0.45,0,1,1,209,58.44Z"/><path class="cls-2" d="M209,61.44H189.3a0.45,0.45,0,0,1,0-.9H209A0.45,0.45,0,1,1,209,61.44Z"/><path class="cls-2" d="M209,64.44H189.3a0.45,0.45,0,1,1,0-.9H209A0.45,0.45,0,1,1,209,64.44Z"/><path class="cls-2" d="M209,67.44H189.3a0.45,0.45,0,1,1,0-.9H209A0.45,0.45,0,1,1,209,67.44Z"/><path class="cls-2" d="M209,70.44H189.3a0.45,0.45,0,0,1,0-.9H209A0.45,0.45,0,1,1,209,70.44Z"/><path class="cls-2" d="M28.3,122.44H6.2a5.42,5.42,0,0,1-5.8-5.12c-0.1-1.44-.88-12.84,0-16.63C1.58,96,5,95.56,5.12,95.55a1.5,1.5,0,0,1,1.62,1.09c1.84,6.66,7.06,12.21,8.56,13.7H30.4a1.5,1.5,0,0,1,1.46,1.14,12.26,12.26,0,0,1-2.42,10.45A1.5,1.5,0,0,1,28.3,122.44ZM4.43,99.22a4.77,4.77,0,0,0-1.07,2.17c-0.69,2.85-.21,12.33,0,15.74,0,0,0,0,0,.07,0,0.51.31,2.24,2.8,2.24H27.56a9.28,9.28,0,0,0,1.6-6.1H14.7a1.5,1.5,0,0,1-1-.39A38.8,38.8,0,0,1,4.43,99.22Z"/><path class="cls-2" d="M12.5,121.78a0.9,0.9,0,0,1-.76-0.41c-1.27-2-2.74-6.75.79-10.64a0.9,0.9,0,1,1,1.33,1.21c-3.5,3.85-.64,8.41-0.61,8.45A0.9,0.9,0,0,1,12.5,121.78Z"/><path class="cls-2" d="M23.15,119.18h-9.7a2.85,2.85,0,0,1,0-5.7h9.7A2.85,2.85,0,0,1,23.15,119.18Zm-9.7-3.9a1,1,0,0,0,0,2.1h9.7a1.05,1.05,0,0,0,0-2.1h-9.7Z"/><path class="cls-3" d="M5.3,100h7c2.3,0,5.6.3,7.1,4.2a27.63,27.63,0,0,1,1.7,7.5l-3.8-.1s-0.6-6.4-3-7.6-9.4-.5-9.4-0.5S3,102.14,5.3,100Z"/><path class="cls-2" d="M21.1,112.64h0l-3.8-.1a0.9,0.9,0,0,1-.87-0.82c-0.23-2.45-1.16-6.21-2.51-6.88-1.78-.89-7-0.6-8.91-0.41a0.9,0.9,0,0,1-.62-0.17,2.86,2.86,0,0,1-1.1-2A3.64,3.64,0,0,1,4.7,99.37a0.9,0.9,0,0,1,.61-0.24h7c1.67,0,6.1,0,7.94,4.78A28.32,28.32,0,0,1,22,111.69,0.9,0.9,0,0,1,21.1,112.64Zm-3-1.88,2,0.05a27.44,27.44,0,0,0-1.54-6.25c-1.22-3.18-3.73-3.62-6.26-3.62H5.67a1.76,1.76,0,0,0-.6,1.17,0.92,0.92,0,0,0,.18.5c1.69-.15,7.18-0.51,9.46.63S17.85,108.86,18.11,110.76Z"/><path class="cls-2" d="M236.9,122.44H214.8a1.5,1.5,0,0,1-1.13-.51,12.26,12.26,0,0,1-2.42-10.45,1.5,1.5,0,0,1,1.46-1.14h15.09c1.5-1.49,6.72-7,8.56-13.7A1.5,1.5,0,0,1,238,95.55c0.14,0,3.55.48,4.68,5.13,0.92,3.79.14,15.19,0,16.63A5.42,5.42,0,0,1,236.9,122.44Zm-21.35-3H236.9c2.49,0,2.77-1.73,2.8-2.26,0,0,0,0,0,0,0.25-3.41.73-12.89,0-15.74a4.81,4.81,0,0,0-1.06-2.18,38.78,38.78,0,0,1-9.27,13.73,1.5,1.5,0,0,1-1,.39H214A9.33,9.33,0,0,0,215.55,119.44Z"/><path class="cls-2" d="M230.6,121.78a0.9,0.9,0,0,1-.76-1.38h0c0.12-.19,2.87-4.63-0.61-8.46a0.9,0.9,0,1,1,1.33-1.21c3.53,3.88,2.06,8.66.79,10.64A0.9,0.9,0,0,1,230.6,121.78Z"/><path class="cls-2" d="M229.65,119.18h-9.7a2.85,2.85,0,1,1,0-5.7h9.7A2.85,2.85,0,0,1,229.65,119.18Zm-9.7-3.9a1,1,0,1,0,0,2.1h9.7a1.05,1.05,0,0,0,0-2.1h-9.7Z"/><path class="cls-3" d="M237.8,100h-7c-2.3,0-5.6.3-7.1,4.2a27.63,27.63,0,0,0-1.7,7.5l3.8-.1s0.6-6.4,3-7.6,9.4-.5,9.4-0.5S240.1,102.14,237.8,100Z"/><path class="cls-2" d="M222,112.64a0.9,0.9,0,0,1-.9-0.95,28.33,28.33,0,0,1,1.76-7.77c1.84-4.78,6.27-4.78,7.94-4.78h7a0.9,0.9,0,0,1,.61.24,3.64,3.64,0,0,1,1.43,2.84,2.86,2.86,0,0,1-1.1,2,0.9,0.9,0,0,1-.62.17c-1.88-.19-7.13-0.48-8.91.41-1.34.67-2.27,4.43-2.51,6.88a0.9,0.9,0,0,1-.87.82l-3.8.1h0Zm8.8-11.7c-2.53,0-5,.44-6.26,3.62a27.45,27.45,0,0,0-1.54,6.25l2-.05c0.26-1.9,1.11-6.38,3.4-7.53s7.77-.78,9.46-0.63a0.93,0.93,0,0,0,.18-0.5,1.76,1.76,0,0,0-.6-1.17H230.8Z"/><rect class="cls-3" x="23.23" y="97.24" width="2.9" height="9.5" rx="1.45" ry="1.45"/><path class="cls-2" d="M24.68,107.64a2.35,2.35,0,0,1-2.35-2.35v-6.6a2.35,2.35,0,1,1,4.7,0v6.6A2.35,2.35,0,0,1,24.68,107.64Zm0-9.5a0.56,0.56,0,0,0-.55.55v6.6a0.55,0.55,0,0,0,1.1,0v-6.6A0.56,0.56,0,0,0,24.68,98.14Z"/><rect class="cls-3" x="25.13" y="49.84" width="2.9" height="9.5" rx="1.45" ry="1.45"/><path class="cls-2" d="M26.58,60.24a2.35,2.35,0,0,1-2.35-2.35v-6.6a2.35,2.35,0,0,1,4.7,0v6.6A2.35,2.35,0,0,1,26.58,60.24Zm0-9.5a0.56,0.56,0,0,0-.55.55v6.6a0.55,0.55,0,1,0,1.1,0v-6.6A0.56,0.56,0,0,0,26.58,50.74Z"/></svg>