<?xml version="1.0" encoding="utf-8"?>
<!-- Generator: Adobe Illustrator 24.1.3, SVG Export Plug-In . SVG Version: 6.00 Build 0)  -->
<svg version="1.1" id="" xmlns="http://www.w3.org/2000/svg" xmlns:xlink="http://www.w3.org/1999/xlink" x="0px"
	 y="0px" viewBox="0 0 140 140" style="enable-background:new 0 0 140 140;" xml:space="preserve">
<style type="text/css">
	.st0{fill:#040000;}
</style>
<g>
	<path class="st0" d="M136.4,61c-0.4-0.3-9.3-6.3-33.5-6.3c-13.3,0-22.6,5.6-25.3,7.5c-2.2-1-5.6-1-7.1-1c-1.5-0.1-5,0-7.2,1
		c-2.8-1.9-12-7.5-25.3-7.5c-24.2,0-33.1,6.1-33.5,6.3c-0.4,0.3-0.6,0.7-0.6,1.2V71c0,0.7,0.5,1.3,1.2,1.5c0.5,0.1,2.2,0.6,2.7,1.5
		c0.1,0.2,0.3,0.8,0.5,1.4c5.2,16.7,14.7,25.2,28.1,25.2c22.8,0,30.7-25.6,30.7-25.8c0.2-0.5,0-1.1-0.4-1.5l-1.5-1.5
		c1.1-1,3-2.5,5.1-2.5c2.1,0,4,1.5,5.1,2.5l-1.5,1.5c-0.4,0.4-0.5,1-0.4,1.5c0.1,0.3,7.9,25.8,30.7,25.8c13.5,0,22.9-8.5,28.1-25.2
		c0.2-0.6,0.4-1.2,0.4-1.3c0.5-0.9,2.2-1.4,2.8-1.5c0.7-0.1,1.2-0.8,1.2-1.5v-8.8C137.1,61.7,136.8,61.2,136.4,61z M36.7,97
		c-26,0-23.3-26-23.3-26c0-3.6,2.7-12.7,26.3-12.7s21.8,14.2,21.8,14.2S62.6,97,36.7,97z M103.9,97c-26,0-23.3-26-23.3-26
		c0-3.6,2.7-12.7,26.3-12.7c23.6,0,21.8,14.2,21.8,14.2S129.9,97,103.9,97z"/>
	<path class="st0" d="M104.5,102.1c-23.9,0-32.1-26.6-32.2-26.9c-0.3-1.1,0-2.2,0.8-3l0.3-0.3c-0.8-0.6-1.9-1.1-2.9-1.1
		c-1,0-2,0.5-2.8,1.1l0.3,0.3c0.8,0.8,1.1,1.9,0.8,3c-0.1,0.3-8.3,26.9-32.2,26.9c-14.2,0-24.2-8.8-29.6-26.2
		c-0.1-0.4-0.3-0.9-0.4-1.1c-0.2-0.2-1.1-0.6-1.7-0.7c-1.4-0.3-2.4-1.5-2.4-2.9v-8.8c0-1,0.5-1.9,1.3-2.5c0.4-0.3,9.6-6.6,34.3-6.6
		c12.9,0,22.2,5.2,25.5,7.4c2.3-0.8,5.3-0.8,7-0.8c1.4,0,4.4,0,6.9,0.8c3.4-2.2,12.6-7.4,25.5-7.4c24.7,0,33.9,6.3,34.3,6.6l0,0
		c0.8,0.6,1.3,1.5,1.3,2.5V71c0,1.5-1,2.7-2.5,3c-0.6,0.1-1.5,0.5-1.7,0.8c-0.1,0.2-0.2,0.7-0.3,1.1
		C128.6,93.2,118.7,102.1,104.5,102.1z M95.3,97.5c2.7,1,5.8,1.6,9.1,1.6c4.2,0,8-0.9,11.4-2.6c-3.4,1.4-7.4,2.1-11.9,2.1
		C100.8,98.5,97.9,98.2,95.3,97.5z M25.1,96.4c3.4,1.8,7.2,2.7,11.4,2.7c3.5,0,6.6-0.6,9.4-1.7c-2.8,0.8-5.9,1.2-9.3,1.2
		C32.3,98.5,28.4,97.8,25.1,96.4z M106.9,59.9c-23,0-24.8,8.6-24.8,11.2c0,0,0,0.1,0,0.2c0,0.1-1,11,5.4,18.1
		c3.7,4.1,9.2,6.2,16.4,6.2c7.5,0,13.3-2.1,17.3-6.3c6.4-6.7,6-16.5,6-16.6c0-0.1,0-0.2,0-0.3c0-0.1,0.4-3.7-2.6-7
		C121.4,61.8,115.3,59.9,106.9,59.9z M39.6,59.9c-23,0-24.8,8.6-24.8,11.2c0,0,0,0.1,0,0.2c0,0.1-1,11,5.4,18.1
		c3.7,4.1,9.2,6.2,16.4,6.2c7.5,0,13.3-2.1,17.3-6.3c6.4-6.7,6-16.5,6-16.6c0-0.1,0-0.2,0-0.3c0-0.1,0.4-3.7-2.6-7
		C54.2,61.8,48,59.9,39.6,59.9z M70.4,67.7c2.6,0.1,4.8,1.6,6.2,2.9c0.3,0.3,0.5,0.7,0.5,1.1c0,0.4-0.2,0.8-0.4,1.1l-1.5,1.5
		c0,0.1,2.3,7.5,7.9,14.1C78.4,81,79,72,79.1,71c0-3.4,2.2-14.1,27.8-14.1c9.5,0,16.2,2.2,20.1,6.6c3.5,4,3.3,8.3,3.2,9.1
		c0,0.7,0.1,3.7-0.9,7.4c0.7-1.6,1.3-3.3,1.8-5.1c0.3-1,0.4-1.3,0.5-1.5c0,0,0-0.1,0.1-0.1c1-1.7,3.7-2.3,3.8-2.3l0-8.8c0,0,0,0,0,0
		c-0.1-0.1-8.9-6.1-32.6-6.1c-13,0-22,5.6-24.5,7.3c-0.4,0.3-1,0.4-1.5,0.1c-1.6-0.7-4.3-0.9-6.4-0.8c0,0-0.1,0-0.1,0
		c-1,0-4.5-0.1-6.5,0.8c-0.5,0.2-1,0.2-1.5-0.1C60.1,61.7,51,56.1,38,56.1c-23.7,0-32.5,6-32.6,6.1l0,8.8c0.1,0,2.8,0.5,3.8,2.2
		c0,0,0,0.1,0.1,0.1c0.1,0.2,0.2,0.6,0.5,1.6c1.2,3.8,2.6,7.2,4.2,10.1c-2.8-6.6-2.3-13.2-2.2-14c0-3.4,2.2-14.1,27.8-14.1
		c9.5,0,16.2,2.2,20.1,6.6c3.5,4,3.3,8.3,3.2,9.1c0,1,0.1,7-2.9,13c4-5.8,5.7-11.2,5.7-11.3l-1.5-1.5c-0.3-0.3-0.4-0.7-0.4-1.1
		c0-0.4,0.2-0.8,0.5-1.1C65.8,69.4,68,67.8,70.4,67.7z"/>
</g>
<path class="st0" d="M38.2,85.9L38.2,85.9c-2.6,0-4.7-2.1-4.7-4.7V43.6c0-2.6,2.1-4.7,4.7-4.7h0c2.6,0,4.7,2.1,4.7,4.7v37.6
	C42.8,83.8,40.7,85.9,38.2,85.9z"/>
<path class="st0" d="M103.3,85.9L103.3,85.9c-2.6,0-4.7-2.1-4.7-4.7V43.6c0-2.6,2.1-4.7,4.7-4.7h0c2.6,0,4.7,2.1,4.7,4.7v37.6
	C108,83.8,105.9,85.9,103.3,85.9z"/>
</svg>
