<?xml version="1.0" encoding="utf-8"?>
<!-- Generator: Adobe Illustrator 24.1.3, SVG Export Plug-In . SVG Version: 6.00 Build 0)  -->
<svg version="1.1" id="レイヤー_1" xmlns="http://www.w3.org/2000/svg" xmlns:xlink="http://www.w3.org/1999/xlink" x="0px"
	 y="0px" viewBox="0 0 140 140" style="enable-background:new 0 0 140 140;" xml:space="preserve">
<style type="text/css">
	.st0{fill:#040000;}
</style>
<path class="st0" d="M88.3,133.6H52.7c-1.1,0-2.2-0.5-2.9-1.3c-0.8-0.8-1.1-1.9-1-3l2.3-27.4C41,98.3,33.9,88.7,32.9,77l-4-51.1
	c0-0.1,0-0.2,0-0.3c0-10,8.2-18.2,18.2-18.2H94c10,0,18.2,8.2,18.2,18.2c0,0.1,0,0.2,0,0.3l-4,51.1c-0.8,11.5-8,21.3-18.1,24.9
	l2.3,27.4c0.1,1.1-0.3,2.2-1,3C90.5,133.1,89.4,133.6,88.3,133.6z M57,125.6H84l-2.2-26.4c-0.2-2,1.2-3.9,3.2-4.3
	c8.2-1.7,14.6-9.5,15.2-18.6l4-50.9c-0.1-5.5-4.6-10-10.2-10H47c-5.6,0-10.1,4.5-10.2,10l4,50.9c0.8,9.3,7.1,17,15.2,18.6
	c2,0.4,3.4,2.2,3.2,4.3L57,125.6z M108.1,25.6L108.1,25.6L108.1,25.6z"/>
<path class="st0" d="M78.7,41.6c-4.9,0-7.4-2.7-9.4-4.9c-1.9-2-3.4-3.6-6.5-3.6c-3.1,0-4.6,1.6-6.5,3.6c-2,2.2-4.6,4.9-9.4,4.9
	c-4.9,0-7.4-2.7-9.4-4.9c-1.4-1.5-2.6-2.8-4.5-3.3c-1.1-0.3-1.7-1.4-1.4-2.5c0.3-1.1,1.4-1.7,2.5-1.4c2.9,0.8,4.7,2.8,6.2,4.4
	c1.9,2,3.4,3.6,6.5,3.6c3.1,0,4.6-1.6,6.5-3.6c2-2.2,4.6-4.9,9.4-4.9c4.9,0,7.4,2.7,9.4,4.9c1.9,2,3.4,3.6,6.5,3.6
	c3.1,0,4.6-1.6,6.5-3.6c2-2.2,4.6-4.9,9.4-4.9s7.4,2.7,9.4,4.9c1.1,1.2,2.2,2.4,3.6,3c1,0.5,1.4,1.7,1,2.7c-0.5,1-1.7,1.4-2.7,1
	c-2.1-1-3.5-2.5-4.8-3.9c-1.9-2-3.4-3.6-6.5-3.6s-4.6,1.6-6.5,3.6C86.1,38.9,83.5,41.6,78.7,41.6z"/>
<path class="st0" d="M42.1,31c-1.1,0-2-0.9-2-2c0-5.8,4.7-10.5,10.5-10.5h12c1.1,0,2,0.9,2,2s-0.9,2-2,2h-12c-3.6,0-6.5,2.9-6.5,6.5
	C44.1,30.1,43.2,31,42.1,31z"/>
<path class="st0" d="M102.8,73.5H37.3c-1.1,0-2-0.9-2-2s0.9-2,2-2h65.4c1.1,0,2,0.9,2,2S103.9,73.5,102.8,73.5z"/>
<path class="st0" d="M86.4,114.7H54.5c-1.1,0-2-0.9-2-2s0.9-2,2-2h31.8c1.1,0,2,0.9,2,2S87.5,114.7,86.4,114.7z"/>
<path class="st0" d="M81.5,91.4c-1.1,0-2-0.9-2-2s0.9-2,2-2c4,0,7.8-2,10.1-5.3c0.6-0.9,1.9-1.1,2.8-0.5c0.9,0.6,1.1,1.9,0.5,2.8
	C91.9,88.8,86.9,91.4,81.5,91.4z"/>
<path class="st0" d="M48,73.3c-1.1,0-2-0.9-2-2V56.9c0-1.1,0.9-2,2-2s2,0.9,2,2v14.4C50,72.4,49.1,73.3,48,73.3z"/>
<path class="st0" d="M56.8,73.3c-1.1,0-2-0.9-2-2V59.9c0-1.1,0.9-2,2-2s2,0.9,2,2v11.4C58.8,72.4,57.9,73.3,56.8,73.3z"/>
<path class="st0" d="M68.9,73.3c-1.1,0-2-0.9-2-2V49.9c0-1.1,0.9-2,2-2s2,0.9,2,2v21.4C70.9,72.4,70,73.3,68.9,73.3z"/>
<path class="st0" d="M83.6,73.3c-1.1,0-2-0.9-2-2V53.9c0-1.1,0.9-2,2-2s2,0.9,2,2v17.4C85.6,72.4,84.7,73.3,83.6,73.3z"/>
<path class="st0" d="M91.7,73.3c-1.1,0-2-0.9-2-2V56.9c0-1.1,0.9-2,2-2s2,0.9,2,2v14.4C93.7,72.4,92.8,73.3,91.7,73.3z"/>
</svg>
