<?xml version="1.0" encoding="utf-8"?>
<!-- Generator: Adobe Illustrator 24.2.1, SVG Export Plug-In . SVG Version: 6.00 Build 0)  -->
<svg version="1.1" id="レイヤー_1" xmlns="http://www.w3.org/2000/svg" xmlns:xlink="http://www.w3.org/1999/xlink" x="0px"
	 y="0px" viewBox="0 0 50 50" style="enable-background:new 0 0 50 50;" xml:space="preserve">
<g>
	<path d="M39.8,22.6c-1-5-3.8-8.7-8.4-10.9c-1.6-0.8-3.4-1.2-5.2-1.4c-0.1,0-0.2,0-0.2,0c-0.6,0-1.2,0-1.7,0
		c-0.6,0.1-1.2,0.1-1.7,0.2c-4.7,0.9-8.2,3.5-10.5,7.7c-1.3,2.4-1.9,4.9-1.7,7.6c0.3,5.6,3,9.8,7.9,12.5c2.3,1.3,4.9,1.9,7.6,1.7
		c5.6-0.3,9.8-3,12.5-7.9c1-1.8,1.6-3.8,1.7-5.9c0-0.1,0-0.2,0-0.3c0-0.6,0-1.2,0-1.7C40,23.7,40,23.1,39.8,22.6z M25.2,29.7
		c-0.5,1.1-1.5,1.7-2.6,1.9c-0.5,0.1-1.1,0.2-1.7,0.2c-2.1,0-4.1,0-6.2,0c-0.1,0-0.2,0-0.4,0c0-4.5,0-9,0-13.5c0.1,0,0.2,0,0.3,0
		c2.2,0,4.3,0,6.5,0c0.7,0,1.4,0.1,2,0.4c1.3,0.6,2,1.8,2,3.4c0,0.8-0.3,1.6-1,2c-0.3,0.2-0.6,0.3-0.9,0.4c0.6,0,1.2,0.3,1.6,0.8
		c0.4,0.5,0.6,1,0.7,1.6C25.7,27.8,25.6,28.8,25.2,29.7z M28.5,19.1c1.9,0,3.7,0,5.5,0c0,0.6,0,1.1,0,1.6c-1.9,0-3.7,0-5.5,0
		C28.5,20.2,28.5,19.6,28.5,19.1z M36,27.6c-2.3,0-4.6,0-6.9,0c-0.1,1,0.4,2,1.6,2.3c0.6,0.1,1.2,0.1,1.8-0.1c0.6-0.2,1-0.6,1.1-1.3
		c0.4,0,0.8,0,1.2,0c0.4,0,0.8,0,1.2,0c0,0.7-0.1,1.3-0.5,1.9c-0.5,0.8-1.3,1.3-2.2,1.5c-1.2,0.3-2.5,0.3-3.7,0
		c-1.7-0.5-2.8-1.6-3.2-3.3c-0.4-1.6-0.1-3.2,0.7-4.6c0.8-1.3,2.1-2,3.6-2.1c1-0.1,2,0,2.9,0.4c1.4,0.6,2.2,1.8,2.4,3.3
		c0.1,0.6,0.1,1.3,0.1,1.9C36.1,27.4,36,27.5,36,27.6z"/>
	<path d="M21,25.8c-1.1,0-2.2,0-3.3,0c-0.1,0-0.2,0-0.3,0c0,1.2,0,2.4,0,3.6c0.1,0,0.1,0,0.2,0c1.2,0,2.4,0,3.6,0
		c1,0,1.5-0.5,1.6-1.5c0-0.2,0-0.3,0-0.5C22.7,26.3,22.1,25.8,21,25.8z"/>
	<path d="M19.4,23.7c0.6,0,1.2,0,1.9,0c0.4,0,0.7-0.3,0.9-0.7c0.2-0.5,0.2-1,0.1-1.5c-0.1-0.6-0.5-0.8-1.1-0.8c-1.1,0-2.3,0-3.4,0
		c-0.1,0-0.2,0-0.3,0c0,1,0,2,0,3C18.1,23.7,18.8,23.7,19.4,23.7z"/>
	<path d="M31.7,23.7c-1.6-0.1-2.5,1-2.6,2c1.5,0,2.9,0,4.4,0C33.4,24.6,32.7,23.8,31.7,23.7z"/>
</g>
</svg>
