<?xml version="1.0" encoding="utf-8"?>
<!-- Generator: Adobe Illustrator 24.1.3, SVG Export Plug-In . SVG Version: 6.00 Build 0)  -->
<svg version="1.1" id="Untitled-_x25_u30DA_x25_u30FC_x25_u30B8_x25_201"
	 xmlns="http://www.w3.org/2000/svg" xmlns:xlink="http://www.w3.org/1999/xlink" x="0px" y="0px" viewBox="0 0 50 50"
	 style="enable-background:new 0 0 50 50;" xml:space="preserve">
<path d="z"/>
<g id="_x25_u30EC_x25_u30A4_x25_u30E4_x25_u30FC_x25_201">
	<path d="M32.8,13c0.3,0.1,0.6,0.3,0.9,0.4c0.3,0.2,0.6,0.4,1,0.7c0.1,0.1,0.2,0.2,0.3,0.3c0,0,0,0,0.1,0c0.1,0,0.6-0.1,0.8-0.2
		c1-0.2,2-0.7,3-1.2c-0.3,1-1.4,2.6-2.7,3.3c0,0,0,0,0.1,0c0.7,0,3-0.8,3.4-0.9c-0.7,1-2,2.3-3.1,3.1v1.7c-0.1,1.1-0.3,2.2-0.6,3.4
		c-0.8,3.6-3.7,8.3-8.1,10.8c-0.4,0.2-0.9,0.5-1.3,0.7c-0.4,0.2-0.9,0.4-1.3,0.5c-0.7,0.2-1.3,0.4-2,0.6c-0.4,0.1-2.7,0.5-3.5,0.5
		h-1.4c-2.9-0.2-5.8-0.9-8.7-2.7l1.4,0.1c2.5,0,5.1-0.7,7.6-2.6c0,0,0,0,0-0.1c-0.3,0-0.8-0.1-1.1-0.1c-0.2,0-0.4-0.1-0.5-0.1
		c-1.3-0.3-3.2-1.7-3.8-3.1c-0.1-0.3-0.2-0.5-0.3-0.8c0.4,0.1,1.1,0.1,1.1,0.1c0.5,0,1.1-0.1,1.6-0.2c-0.2-0.1-0.4-0.2-0.7-0.2
		c-1.1-0.3-2.8-1.5-3.5-2.7c-0.1-0.2-0.2-0.4-0.3-0.7c-0.1-0.2-0.1-0.3-0.2-0.5c-0.1-0.2-0.1-0.4-0.2-0.6c0-0.2-0.1-0.7-0.1-0.7V21
		c0.7,0.4,1.6,0.6,2.3,0.7c0.1,0,0.4-0.1,0.4,0c0-0.1-0.8-0.6-1.3-1.1c-0.8-1-1.2-2.1-1.4-3.1c0-0.1,0-0.2,0-0.3v-1.1
		c0.1-0.8,0.3-1.7,0.8-2.5c3.6,4.1,7.6,5.7,11.4,6.2c0.4,0.1,1.1,0.1,1.2,0.1h0.1l0.1-0.1c-0.1-0.3-0.2-0.8-0.2-0.9v-0.9
		c0.4-3.8,3.4-5.6,6.2-5.6C31.3,12.5,32,12.6,32.8,13z"/>
</g>
<path d="z"/>
</svg>
