<?xml version="1.0" encoding="utf-8"?>
<!-- Generator: Adobe Illustrator 22.0.1, SVG Export Plug-In . SVG Version: 6.00 Build 0)  -->
<svg version="1.1" id="レイヤー_1" xmlns="http://www.w3.org/2000/svg" xmlns:xlink="http://www.w3.org/1999/xlink" x="0px"
	 y="0px" viewBox="0 0 100 100" style="enable-background:new 0 0 100 100;" xml:space="preserve">
<path d="M98.8,52.2L88.4,41.3V13.5c0-2.4-1.9-4.3-4.3-4.3H71.8c-2.4,0-4.3,1.9-4.3,4.3v5.8L53.1,4.4c-0.8-0.9-2-1.3-3.1-1.3
	s-2.3,0.5-3.1,1.3L1.2,52.2c-1.2,1.3-1.5,3.1-0.9,4.7s2.3,2.6,4,2.6h9.7v33c0,2.4,1.9,4.3,4.3,4.3h19V77.6C37.4,70.7,43.1,65,50,65
	s12.6,5.7,12.6,12.6v19.3h19c2.4,0,4.3-1.9,4.3-4.3v-33h9.7c1.7,0,3.3-1,4-2.6S100,53.5,98.8,52.2z"/>
</svg>
