<?xml version="1.0" encoding="utf-8"?>
<!-- Generator: Adobe Illustrator 24.1.3, SVG Export Plug-In . SVG Version: 6.00 Build 0)  -->
<svg version="1.1" id="レイヤー_1" xmlns="http://www.w3.org/2000/svg" xmlns:xlink="http://www.w3.org/1999/xlink" x="0px"
	 y="0px" viewBox="0 0 50 50" style="enable-background:new 0 0 50 50;" xml:space="preserve">
<path d="M20.4,11h9.2h0.1c0.7,0,1.4,0,2.1,0.1c1.3,0.1,2.5,0.6,3.7,1.3c2,1.4,3.2,3.7,3.2,6.2c0,0.6,0,1.1,0.1,1.7v9.3
	c0,0.1,0,0.1,0,0.3c-0.1,0.8-0.1,1.8-0.3,2.8c-0.4,2.8-2.4,5.2-5.2,5.9c-1.4,0.3-2.7,0.6-4.1,0.4c-2,0-3.9,0-5.9,0
	c-1.8,0-3.5,0-5.4-0.1c-1.3-0.1-2.5-0.6-3.7-1.3c-2.1-1.4-3.2-3.7-3.4-6.2c0-0.7,0-1.3,0-1.8v-9.2c0,0,0-0.1,0-0.3
	c0-0.7,0-1.4,0.1-2.1c0.1-1.3,0.6-2.5,1.3-3.7c1.4-2,3.7-3.2,6.2-3.2L20.4,11z M25,13.5L25,13.5c-1.1,0-2.4,0-3.5,0
	s-2.4,0.1-3.5,0.3c-2,0.1-3.7,1.7-4.1,3.7c-0.3,1.1-0.3,2.3-0.3,3.4c0,2.5,0,5.1,0,7.6c0,1.1,0.1,2.4,0.3,3.5c0.1,2,1.7,3.7,3.7,4.1
	c1.1,0.3,2.3,0.3,3.4,0.3c2.5,0,5.1,0,7.6,0c1.1,0,2.4,0,3.5-0.3c2-0.1,3.7-1.7,4.1-3.7c0.3-1.1,0.3-2.3,0.3-3.4c0-2.5,0-5.1,0-7.6
	c0-1.1,0-2.4-0.3-3.5c-0.1-2-1.5-3.5-3.5-3.9c-1-0.3-2.1-0.4-3.2-0.3C28,13.5,26.5,13.5,25,13.5z"/>
<path d="M25,17.7c3.9,0,7.2,3.2,7.2,7.2S29,32.1,25,32.1c-3.9,0-7.2-3.2-7.2-7.2l0,0C17.8,21,21,17.7,25,17.7z M25,20.3
	c-2.5,0-4.6,2.1-4.6,4.6s2.1,4.6,4.6,4.6s4.6-2.1,4.6-4.6S27.6,20.3,25,20.3L25,20.3L25,20.3z"/>
<path d="M34.1,17.5c0,1-0.7,1.7-1.7,1.7c-1,0-1.7-0.7-1.7-1.7c0-1,0.7-1.7,1.7-1.7l0,0C33.4,15.8,34.1,16.6,34.1,17.5L34.1,17.5z"/>
</svg>
