<?xml version="1.0" encoding="utf-8"?>
<!-- Generator: Adobe Illustrator 24.1.3, SVG Export Plug-In . SVG Version: 6.00 Build 0)  -->
<svg version="1.1" id="レイヤー_1" xmlns="http://www.w3.org/2000/svg" xmlns:xlink="http://www.w3.org/1999/xlink" x="0px"
	 y="0px" viewBox="0 0 140 140" style="enable-background:new 0 0 140 140;" xml:space="preserve">
<path d="M35.7,129.5c-7,0-12.7-5.8-12.7-13c0-7.2,5.7-13,12.7-13h76.4v4H35.7c-4.8,0-8.7,4-8.7,9s3.9,9,8.7,9V129.5z"/>
<path d="M101.2,15.2c6.3,0,11.3,5.1,11.3,11.3v26c2.1,0.8,3.7,2.9,3.7,5.3v9.5v2v9.5c0,2.4-1.5,4.5-3.7,5.3v20.4
	c-5.1,0.8-9,5.3-9,10.6s3.9,9.7,9,10.6v0.2H36c-6.3,0-11.3-5.1-11.3-11.3v-88c0-6.3,5.1-11.3,11.3-11.3H101.2 M101.2,7.2H36
	c-10.7,0-19.3,8.7-19.3,19.3v88c0,10.7,8.7,19.3,19.3,19.3h76.6c4.4,0,8-3.6,8-8v-0.2c0-3.9-2.8-7.3-6.7-7.9
	c-1.3-0.2-2.3-1.3-2.3-2.7c0-1.3,1-2.5,2.3-2.7c3.9-0.6,6.7-4,6.7-7.9V88.1c2.3-2.5,3.7-5.8,3.7-9.3v-9.5v-2v-9.5
	c0-3.5-1.4-6.8-3.7-9.3V26.5C120.5,15.8,111.9,7.2,101.2,7.2L101.2,7.2z"/>
<path d="M114.7,52.2c3.1,0,5.7,2.5,5.7,5.7v9.5v2v9.5c0,2.5-1.6,4.6-3.8,5.3V69.4H88.1l-9.9-17.2H114.7 M114.7,48.2H78.2
	c-1.4,0-2.7,0.8-3.5,2s-0.7,2.8,0,4l9.9,17.2c0.7,1.2,2,2,3.5,2h24.5v10.8c0,1.3,0.6,2.5,1.7,3.3c0.7,0.5,1.5,0.7,2.3,0.7
	c0.4,0,0.9-0.1,1.3-0.2c3.9-1.4,6.5-5,6.5-9.1v-9.5v-2v-9.5C124.4,52.5,120,48.2,114.7,48.2L114.7,48.2z"/>
<path d="M23.2,66.2h-4v-6.7c0-8.6,7-15.5,15.5-15.5h5.4V29.9h-5.4c-6.4,0-11.5,5.2-11.5,11.5v6.7h-4v-6.7c0-8.6,7-15.5,15.5-15.5
	h9.4V48h-9.4c-6.4,0-11.5,5.2-11.5,11.5V66.2z"/>
<rect x="40.2" y="13.6" width="4" height="92.4"/>
<path d="M92.8,66.1c-3.1,0-5.5-2.5-5.5-5.5s2.5-5.5,5.5-5.5s5.5,2.5,5.5,5.5S95.8,66.1,92.8,66.1z M92.8,59c-0.8,0-1.5,0.7-1.5,1.5
	s0.7,1.5,1.5,1.5c0.8,0,1.5-0.7,1.5-1.5S93.6,59,92.8,59z"/>
<path d="M106.1,112.8H69.7c-1.1,0-2-0.9-2-2s0.9-2,2-2h36.4c1.1,0,2,0.9,2,2S107.2,112.8,106.1,112.8z"/>
<path d="M105.3,118.6H89.4c-1.1,0-2-0.9-2-2s0.9-2,2-2h15.9c1.1,0,2,0.9,2,2S106.4,118.6,105.3,118.6z"/>
<path d="M107.6,124.6H84.3c-1.1,0-2-0.9-2-2s0.9-2,2-2h23.2c1.1,0,2,0.9,2,2S108.7,124.6,107.6,124.6z"/>
</svg>
