<?xml version="1.0" encoding="utf-8"?>
<!-- Generator: Adobe Illustrator 24.1.3, SVG Export Plug-In . SVG Version: 6.00 Build 0)  -->
<svg version="1.1" id="レイヤー_1" xmlns="http://www.w3.org/2000/svg" xmlns:xlink="http://www.w3.org/1999/xlink" x="0px"
	 y="0px" viewBox="0 0 50 50" style="enable-background:new 0 0 50 50;" xml:space="preserve">
<style type="text/css">
	.st0{fill:#040000;}
	.st1{fill:#FFFFFF;}
</style>
<path class="st0" d="M34.9,20.2H34v-2c0-4.9-4.1-9-9-9s-9,4.1-9,9v2h-0.9c-1.8,0-3.3,1.4-3.3,3.3v12.9c0,1.8,1.4,3.3,3.3,3.3h19.7
	c1.8,0,3.3-1.4,3.3-3.3v-13C38,21.7,36.6,20.2,34.9,20.2z M20.1,18.3c0-2.7,2.2-4.9,4.9-4.9s4.9,2.2,4.9,4.9v2H20v-2H20.1z"/>
<path class="st1" d="M26.1,29.9c0.9-0.4,1.4-1.3,1.4-2.3c0-1.4-1.2-2.6-2.6-2.6c-1.4,0-2.6,1.2-2.6,2.6c0,1,0.5,1.9,1.4,2.3l-1.1,5
	c0,0.2,0,0.3,0.1,0.5c0.1,0.1,0.3,0.2,0.4,0.2h3.5c0.2,0,0.3-0.1,0.4-0.2c0.1-0.1,0.1-0.3,0.1-0.5L26.1,29.9z"/>
</svg>
