<?xml version="1.0" encoding="utf-8"?>
<!-- Generator: Adobe Illustrator 24.1.3, SVG Export Plug-In . SVG Version: 6.00 Build 0)  -->
<svg version="1.1" id="レイヤー_1" xmlns="http://www.w3.org/2000/svg" xmlns:xlink="http://www.w3.org/1999/xlink" x="0px"
	 y="0px" viewBox="0 0 140 140" style="enable-background:new 0 0 140 140;" xml:space="preserve">
<style type="text/css">
	.st0{fill:#040000;}
</style>
<path class="st0" d="M128.5,19.7L128.5,19.7 M128.5,19.7L90.6,121.3L62.9,99l-20.8,20.8V82.2L12.9,58.8L128.5,19.7 M128.5,11.7
	c-0.2,0-0.4,0-0.5,0c-0.8,0.1-1.5,0.2-2.2,0.5l-115.4,39c-2.8,0.9-4.8,3.3-5.3,6.2s0.6,5.8,2.9,7.6l26.2,21.1v33.7
	c0,3.2,1.9,6.2,4.9,7.4c1,0.4,2,0.6,3.1,0.6c2.1,0,4.1-0.8,5.7-2.3l15.7-15.7l22.1,17.8c1.4,1.2,3.2,1.8,5,1.8
	c0.7,0,1.4-0.1,2.1-0.3c2.5-0.7,4.5-2.5,5.4-4.9l37.8-101.3c0.4-0.9,0.6-2,0.6-3c0-4.3-3.5-7.9-7.8-8
	C128.6,11.7,128.6,11.7,128.5,11.7L128.5,11.7z M128.5,27.7L128.5,27.7L128.5,27.7L128.5,27.7z"/>
<path class="st0" d="M42.1,121.8c-0.3,0-0.6-0.1-0.9-0.2c-1-0.5-1.4-1.7-0.9-2.7L53,92.7c0.1-0.2,0.2-0.4,0.4-0.5l56.1-56.3
	L43.3,83.9c-0.9,0.6-2.1,0.4-2.8-0.4c-0.6-0.9-0.4-2.1,0.4-2.8l86.4-62.5c0.8-0.6,2-0.5,2.7,0.3c0.7,0.8,0.6,2-0.1,2.7L56.4,94.8
	l-12.5,25.8C43.5,121.3,42.8,121.8,42.1,121.8z"/>
<path class="st0" d="M90.6,124.6c-0.4,0-0.9-0.1-1.3-0.4L53.9,95.6c-0.9-0.7-1-2-0.3-2.8c0.7-0.9,2-1,2.8-0.3l35.4,28.6
	c0.9,0.7,1,2,0.3,2.8C91.7,124.4,91.2,124.6,90.6,124.6z"/>
</svg>
