<?xml version="1.0" encoding="utf-8"?>
<!-- Generator: Adobe Illustrator 24.1.3, SVG Export Plug-In . SVG Version: 6.00 Build 0)  -->
<svg version="1.1" id="レイヤー_1" xmlns="http://www.w3.org/2000/svg" xmlns:xlink="http://www.w3.org/1999/xlink" x="0px"
	 y="0px" viewBox="0 0 140 140" style="enable-background:new 0 0 140 140;" xml:space="preserve">
<style type="text/css">
	.st0{fill:#231815;}
	.st1{fill:#040000;}
</style>
<g>
	<path d="M104.7,70.8h-69c-7.7,0-13.9-6.2-13.9-13.9v-0.5c0-1.1,0.9-2,2-2s2,0.9,2,2v0.5c0,5.5,4.5,9.9,9.9,9.9h69
		c5.5,0,9.9-4.5,9.9-9.9v-0.5c0-1.1,0.9-2,2-2s2,0.9,2,2v0.5C118.6,64.5,112.4,70.8,104.7,70.8z"/>
	<path d="M70.2,17.8c13.2,0,24,10.7,24,24c0,0,0,0.1,0,0.1h8.8c6.3,0,11.3,5.1,11.3,11.3v0.4v57.6c0,6.3-5.1,11.3-11.3,11.3H37.4
		c-6.3,0-11.3-5.1-11.3-11.3V53.6v-0.4c0-6.3,5.1-11.3,11.3-11.3h8.8c0,0,0-0.1,0-0.1C46.2,28.5,56.9,17.8,70.2,17.8 M70.2,9.8
		c-14.9,0-27.5,10.3-31,24.1h-1.8C26.7,33.9,18,42.5,18,53.2v0.4v57.6c0,10.7,8.7,19.3,19.3,19.3H103c10.7,0,19.3-8.7,19.3-19.3
		V53.6v-0.4c0-10.7-8.7-19.3-19.3-19.3h-1.8C97.7,20,85.1,9.8,70.2,9.8L70.2,9.8z"/>
	<g>
		<path d="M95.1,54.8c-1.1,0-2-0.9-2-2v-12c0-12.1-9.9-22-22-22s-22,9.9-22,22v12c0,1.1-0.9,2-2,2s-2-0.9-2-2v-12
			c0-14.3,11.7-26,26-26c14.3,0,26,11.7,26,26v12C97.1,53.9,96.2,54.8,95.1,54.8z"/>
		<path d="M85.6,54.8c-1.1,0-2-0.9-2-2v-12c0-6.9-5.6-12.5-12.5-12.5s-12.5,5.6-12.5,12.5v12c0,1.1-0.9,2-2,2s-2-0.9-2-2v-12
			c0-9.1,7.4-16.5,16.5-16.5c9.1,0,16.5,7.4,16.5,16.5v12C87.6,53.9,86.7,54.8,85.6,54.8z"/>
		<path d="M51.9,60c-3.7,0-6.7-3-6.7-6.7c0-1.1,0.9-2,2-2s2,0.9,2,2c0,1.5,1.2,2.7,2.7,2.7s2.7-1.2,2.7-2.7c0-1.1,0.9-2,2-2
			s2,0.9,2,2C58.6,57,55.6,60,51.9,60z"/>
		<path d="M90.3,60c-3.7,0-6.7-3-6.7-6.7c0-1.1,0.9-2,2-2s2,0.9,2,2c0,1.5,1.2,2.7,2.7,2.7s2.7-1.2,2.7-2.7c0-1.1,0.9-2,2-2
			s2,0.9,2,2C97,57,94,60,90.3,60z"/>
	</g>
	<path d="M84.7,42H57c-1.1,0-2-0.9-2-2s0.9-2,2-2h27.7c1.1,0,2,0.9,2,2S85.8,42,84.7,42z"/>
	<path d="M106.9,109.1c-1.1,0-2-0.9-2-2V84.3c0-1.1,0.9-2,2-2s2,0.9,2,2v22.7C108.9,108.2,108,109.1,106.9,109.1z"/>
</g>
<g>
	<g>
		<circle class="st0" cx="70.2" cy="86.4" r="6.3"/>
		<path class="st1" d="M70.2,94.8c-4.6,0-8.3-3.7-8.3-8.3s3.7-8.3,8.3-8.3s8.3,3.7,8.3,8.3S74.8,94.8,70.2,94.8z M70.2,82.1
			c-2.4,0-4.3,1.9-4.3,4.3s1.9,4.3,4.3,4.3s4.3-1.9,4.3-4.3S72.6,82.1,70.2,82.1z"/>
	</g>
	<g>
		<polygon class="st0" points="70.2,87.6 64.5,110.6 75.9,110.6 		"/>
		<path class="st1" d="M75.9,112.6H64.5c-0.6,0-1.2-0.3-1.6-0.8c-0.4-0.5-0.5-1.1-0.4-1.7l5.7-23c0.2-0.9,1-1.5,1.9-1.5
			s1.7,0.6,1.9,1.5l5.7,23c0.1,0.6,0,1.2-0.4,1.7C77.1,112.3,76.5,112.6,75.9,112.6z M67,108.6h6.3l-3.2-12.7L67,108.6z"/>
	</g>
</g>
</svg>
