<?xml version="1.0" encoding="utf-8"?>
<!-- Generator: Adobe Illustrator 16.0.0, SVG Export Plug-In . SVG Version: 6.00 Build 0)  -->
<!DOCTYPE svg PUBLIC "-//W3C//DTD SVG 1.1//EN" "http://www.w3.org/Graphics/SVG/1.1/DTD/svg11.dtd">
<svg version="1.1" id="レイヤー_1" xmlns="http://www.w3.org/2000/svg" xmlns:xlink="http://www.w3.org/1999/xlink" x="0px"
	 y="0px" width="385.149px" height="225.683px" viewBox="0 0 385.149 225.683" enable-background="new 0 0 385.149 225.683"
	 xml:space="preserve">
<path fill="#FFFFFF" stroke="#000000" stroke-width="15" stroke-linecap="round" stroke-linejoin="round" d="M10.554,165.186
	c0,0,2.566-5.891,9.896-5.891c6.021,0,5.765,4.843,5.765,4.843s6.661-4.712,13.206-4.712s5.493,4.975,5.493,4.975
	s6.681-4.975,12.571-4.975c3.142,0,4.294,1.963,4.21,3.011c-0.084,1.047-0.676,3.534-2.126,6.938
	c-1.451,3.403-8.378,19.636-5.854,20.813c2.524,1.179,9.168-1.701,9.168-1.701l0.519,1.701c0,0-11.189,7.33-18.389,7.33
	c-7.2,0-3.838-6.021-3.147-8.115c0.69-2.095,12.634-22.122,6.482-22.122s-11.027,16.755-11.933,19.896
	c-0.906,3.142-2.005,10.341-8.812,10.341s-2.833-8.77-1.9-10.603c0.932-1.833,11.016-19.897,5.388-19.897
	c-5.629,0-11.378,16.232-12.064,19.897s-0.585,10.603-7.917,10.603S9.805,186,10.292,184.821c0.922-1.701,8.906-21.337,4.98-21.337
	C11.345,163.484,10.554,165.186,10.554,165.186z"/>
<path fill="#FFFFFF" stroke="#000000" stroke-width="15" stroke-linecap="round" stroke-linejoin="round" d="M88.245,161.128
	c-7.154-2.88-12.148,1.963-12.688,4.974c0,0-7.829,3.272-10.393,13.09c-2.565,9.818,1.754,16.232,10.124,18.064
	c8.368,1.833,17.547-7.199,18.762-17.409C95.263,169.636,95.398,164.008,88.245,161.128z M77.851,187.439
	c-6.479-2.356-1.35-12.959-1.35-12.959s0.675,3.272,4.319,4.581c3.644,1.31,7.559-0.262,7.559-0.262S84.33,189.795,77.851,187.439z
	 M88.785,175.134c0,0-8.369,0.131-7.964-8.378c0,0,1.62-1.964,4.049-1.57C87.3,165.579,89.865,169.244,88.785,175.134z"/>
<path fill="#FFFFFF" stroke="#000000" stroke-width="15" stroke-linecap="round" stroke-linejoin="round" d="M94.453,175.003
	c0,0,6.012-0.632,9.118-3.25v1.179c0,0-6.823,3.773-10.737,4.951C88.919,179.061,94.453,175.003,94.453,175.003z"/>
<path fill="#FFFFFF" stroke="#000000" stroke-width="15" stroke-linecap="round" stroke-linejoin="round" d="M123.116,161.128
	c-7.153-2.88-12.148,1.963-12.688,4.974c0,0-7.829,3.272-10.394,13.09c-2.564,9.818,1.755,16.232,10.124,18.064
	c8.369,1.833,17.547-7.199,18.762-17.409C130.135,169.636,130.271,164.008,123.116,161.128z M112.723,187.439
	c-6.479-2.356-1.35-12.959-1.35-12.959s0.675,3.272,4.32,4.581c3.644,1.31,7.559-0.262,7.559-0.262S119.202,189.795,112.723,187.439
	z M123.656,175.134c0,0-8.369,0.131-7.963-8.378c0,0,1.619-1.964,4.049-1.57C122.171,165.579,124.736,169.244,123.656,175.134z"/>
<path fill="#FFFFFF" stroke="#000000" stroke-width="15" stroke-linecap="round" stroke-linejoin="round" d="M133.733,172.778
	c-3.105,2.618-6.479,2.226-6.479,2.226s-5.534,4.058-1.62,2.88C125.634,177.883,129.503,176.312,133.733,172.778z"/>
<path fill="#FFFFFF" stroke="#000000" stroke-width="15" stroke-linecap="round" stroke-linejoin="round" d="M175.767,159.906
	c-6.25-0.698-6.719,3.49-6.676,3.709c0,0-1.832-3.272-7.461-3.403c-5.628-0.131-16.493,5.629-19.896,19.504
	c-3.404,13.876,2.879,16.756,4.712,17.148c1.833,0.393,9.556,0.916,13.09-3.403c0,0-1.744,3.011-2.792,3.884
	c-1.92,2.182-10.821,4.102-14.137,9.163c-3.317,5.062-0.786,9.424,1.221,10.733c2.007,1.309,13.44,2.705,17.978-6.632
	c4.538-9.339,7.505-22.777,9.773-28.886c2.27-6.109,3.492-10.298,5.062-12.741C178.212,166.539,182.018,160.604,175.767,159.906z
	 M155.608,205.024c-1.047,3.142-3.752,3.49-4.799,2.88c-1.047-0.61-1.919-1.921-0.872-4.016c1.047-2.094,8.377-4.974,8.377-4.974
	S156.656,201.882,155.608,205.024z M165.208,177.622c-1.658,5.41-5.847,10.821-11.432,8.988c-3.757-1.232-3.84-6.98-0.786-12.392
	s7.069-10.124,10.996-9.076C167.914,166.189,166.631,172.977,165.208,177.622z"/>
<path fill="#FFFFFF" stroke="#000000" stroke-width="15" stroke-linecap="round" stroke-linejoin="round" d="M165.559,195.463
	c0,0,18.276-14.352,21.592-28.838c0,0-2.127-7.418,4.625-7.418s7.593,4.801,10.298,5.585c2.705,0.786,3.839-0.35,5.585,0.263
	c1.746,0.61,2.095,1.919,1.222,4.188s-8.553,19.023-5.411,20.421c3.142,1.396,7.942-2.095,7.942-2.095v1.484
	c0,0-11.259,8.202-16.581,8.202c-5.324,0-4.451-5.41-3.055-9.075c1.396-3.666,10.123-17.803,4.451-18.764
	c-5.673-0.959-6.285,4.747-10.473,10.386c-6.95,9.357-21.068,17.841-21.068,17.841L165.559,195.463z"/>
<path fill="#FFFFFF" stroke="#000000" stroke-width="15" stroke-linecap="round" stroke-linejoin="round" d="M317.791,190.013
	c-3.491-2.705,3.229-15.533,4.538-19.548c1.31-4.015,0.872-9.338-2.88-10.56c-3.753-1.222-10.123-1.135-15.011,4.363
	c0,0,6.721-18.763,7.157-21.555c0.436-2.792-0.611-6.196-5.935-6.196s-6.458,3.839-6.545,5.411c-0.262,2.967,1.222,4.887,1.222,7.33
	c0,2.444-3.927,18.85-6.021,22.341c-2.094,3.49-8.204,6.981-8.204,6.981s5.935-17.019-4.974-19.024
	c-6.458-1.048-11.171,3.839-11.171,3.839s0.404-4.362-4.887-4.275c-5.29,0.087-6.981,2.356-7.068,4.626
	c-0.087,2.269,1.571,4.887,0.873,7.592c-0.699,2.705-9.009,24.261-15.989,20.508c-6.283-3.403,4.014-23.737,4.975-24.958
	c0.227-0.29,3.839-4.713-0.088-6.633c-5.115-2.501-6.807,2.88-6.807,2.88s-0.436-2.531-6.457-3.578
	c-6.021-1.048-15.011,5.672-19.287,15.185c-4.275,9.512-5.585,20.507,3.491,22.603c9.076,2.094,14.573-5.76,14.573-5.76
	s-0.959,4.538,5.236,5.848c6.196,1.309,15.901-10.211,17.385-14.399c0,0-5.846,23.037-7.243,27.053
	c-1.396,4.014,0,7.068,3.316,7.767c3.316,0.697,6.458-1.659,6.895-6.371c0.437-4.713,2.442-17.104,3.84-21.031
	c0,0-0.437,5.76,4.624,6.895c5.063,1.134,14.487-3.055,17.891-15.098c0,0,5.411-2.793,8.553-7.33c0,0-4.189,11.169-5.062,13.7
	c-0.873,2.53-2.269,7.505,2.094,8.552c4.363,1.048,7.069-2.007,7.243-3.927c0.175-1.919,2.095-13.874,3.753-17.977
	c1.657-4.102,4.887-12.218,10.036-10.908c5.148,1.309-1.571,13.352-2.968,17.715c-1.396,4.364-4.8,13.788,2.53,15.097
	c7.331,1.31,14.749-7.155,14.749-7.155v-1.396C326.168,188.617,321.282,192.719,317.791,190.013z M234.532,179.511
	c-2.398,5.559-6.044,7.64-8.903,6.405c-2.858-1.232-3.847-5.313-1.448-10.871c2.397-5.559,6.343-10.892,10.133-9.256
	C237.733,167.264,236.929,173.954,234.532,179.511z M268.398,184.777c-4.801-2.531-1.223-9.6-1.223-9.6s1.223,9.6,9.513,6.634
	C276.688,181.811,274.332,187.57,268.398,184.777z M277.648,179.017c0,0-6.981,1.921-5.848-10.21c0,0,3.055-4.799,6.545-3.315
	C281.836,166.974,280.178,175.875,277.648,179.017z"/>
<path fill="#FFFFFF" stroke="#000000" stroke-width="15" stroke-linecap="round" stroke-linejoin="round" d="M333.325,165.448
	c0,0-1.179-2.356,0-4.059c1.178-1.701,3.665-2.486,6.545-1.701s5.367,2.095,4.319,4.843c-1.047,2.75-9.556,23.956-5.104,25.396
	c4.45,1.44,9.562-3.927,9.562-3.927s-1.702-11.65,4.974-19.505c6.676-7.854,14.138-7.724,17.935-6.283
	c3.796,1.439,7.592,6.283,5.497,10.473c-2.095,4.188-6.414,4.712-8.64,3.403c-2.225-1.31-2.749-4.451-2.486-5.367
	c0,0-4.844,1.832-6.808,8.771c-1.964,6.938,6.152,14.661,17.148,4.581c-0.001,0.001-5.629,19.374-20.159,14.792
	c-6.021-1.832-6.807-8.509-6.807-8.509s-9.562,10.734-19.248,8.901c-9.687-1.832-0.83-16.58,1.09-22.776
	C332.392,170.446,333.325,165.448,333.325,165.448z"/>
<circle fill="#FFFFFF" stroke="#000000" stroke-width="15" stroke-linecap="round" stroke-linejoin="round" cx="341.179" cy="150.656" r="6.021"/>
<g>
	<path fill="#8FD3F5" d="M10.554,165.186c0,0,2.566-5.891,9.896-5.891c6.021,0,5.765,4.843,5.765,4.843s6.661-4.712,13.206-4.712
		s5.493,4.975,5.493,4.975s6.681-4.975,12.571-4.975c3.142,0,4.294,1.963,4.21,3.011c-0.084,1.047-0.676,3.534-2.126,6.938
		c-1.451,3.403-8.378,19.636-5.854,20.813c2.524,1.179,11.319-2.532,11.319-2.532l0.519,1.702c0,0-13.34,8.16-20.539,8.16
		c-7.2,0-3.838-6.021-3.147-8.115c0.69-2.095,12.634-22.122,6.482-22.122s-11.027,16.755-11.933,19.896
		c-0.906,3.142-2.005,10.341-8.812,10.341s-2.833-8.77-1.9-10.603c0.932-1.833,11.016-19.897,5.388-19.897
		c-5.629,0-11.378,16.232-12.064,19.897s-0.585,10.603-7.917,10.603S9.805,186,10.292,184.821c0.922-1.701,8.906-21.337,4.98-21.337
		C11.345,163.484,10.554,165.186,10.554,165.186z"/>
	<path fill="#8FD3F5" d="M88.245,161.128c-7.154-2.88-12.148,1.963-12.688,4.974c0,0-7.829,3.272-10.393,13.09
		c-2.565,9.818,1.754,16.232,10.124,18.064c8.368,1.833,17.547-7.199,18.762-17.409C95.263,169.636,95.398,164.008,88.245,161.128z
		 M77.851,187.439c-6.479-2.356-1.35-12.959-1.35-12.959s0.675,3.272,4.319,4.581c3.644,1.31,7.559-0.262,7.559-0.262
		S84.33,189.795,77.851,187.439z M88.785,175.134c0,0-8.369,0.131-7.964-8.378c0,0,1.62-1.964,4.049-1.57
		C87.3,165.579,89.865,169.244,88.785,175.134z"/>
	<path fill="#8FD3F5" d="M94.453,175.003c0,0,7.64-1.668,10.746-4.285v1.178c0,0-8.451,4.81-12.365,5.987
		C88.919,179.061,94.453,175.003,94.453,175.003z"/>
	<path fill="#8FD3F5" d="M123.116,161.128c-7.153-2.88-12.148,1.963-12.688,4.974c0,0-7.829,3.272-10.394,13.09
		c-2.564,9.818,1.755,16.232,10.124,18.064c8.369,1.833,17.547-7.199,18.762-17.409
		C130.135,169.636,130.271,164.008,123.116,161.128z M112.723,187.439c-6.479-2.356-1.35-12.959-1.35-12.959s0.675,3.272,4.32,4.581
		c3.644,1.31,7.559-0.262,7.559-0.262S119.202,189.795,112.723,187.439z M123.656,175.134c0,0-8.369,0.131-7.963-8.378
		c0,0,1.619-1.964,4.049-1.57C122.171,165.579,124.736,169.244,123.656,175.134z"/>
	<path fill="#8FD3F5" d="M135.805,172.778c-3.105,2.618-6.479,2.226-6.479,2.226s-5.534,4.058-1.62,2.88
		C127.706,177.883,131.575,176.312,135.805,172.778z"/>
</g>
<path fill="#FFFFFF" d="M175.767,159.906c-6.25-0.698-6.719,3.49-6.676,3.709c0,0-1.832-3.272-7.461-3.403
	c-5.628-0.131-16.493,5.629-19.896,19.504c-3.404,13.876,2.879,16.756,4.712,17.148c1.833,0.393,9.556,0.916,13.09-3.403
	c0,0-1.744,3.011-2.792,3.884c-1.92,2.182-10.821,4.102-14.137,9.163c-3.317,5.062-0.786,9.424,1.221,10.733
	c2.007,1.309,13.44,2.705,17.978-6.632c4.538-9.339,7.505-22.777,9.773-28.886c2.27-6.109,3.492-10.298,5.062-12.741
	C178.212,166.539,182.018,160.604,175.767,159.906z M155.608,205.024c-1.047,3.142-3.752,3.49-4.799,2.88
	c-1.047-0.61-1.919-1.921-0.872-4.016c1.047-2.094,8.377-4.974,8.377-4.974S156.656,201.882,155.608,205.024z M165.208,177.622
	c-1.658,5.41-5.847,10.821-11.432,8.988c-3.757-1.232-3.84-6.98-0.786-12.392s7.069-10.124,10.996-9.076
	C167.914,166.189,166.631,172.977,165.208,177.622z"/>
<path fill="#FFFFFF" d="M165.559,195.463c0,0,18.276-14.352,21.592-28.838c0,0-2.127-7.418,4.625-7.418s7.593,4.801,10.298,5.585
	c2.705,0.786,3.839-0.35,5.585,0.263c1.746,0.61,2.095,1.919,1.222,4.188s-8.553,19.023-5.411,20.421
	c3.142,1.396,7.942-2.095,7.942-2.095v1.484c0,0-11.259,8.202-16.581,8.202c-5.324,0-4.451-5.41-3.055-9.075
	c1.396-3.666,10.123-17.803,4.451-18.764c-5.673-0.959-6.285,4.747-10.473,10.386c-6.95,9.357-21.068,17.841-21.068,17.841
	L165.559,195.463z"/>
<path fill="#FFFFFF" d="M317.791,190.013c-3.491-2.705,3.229-15.533,4.538-19.548c1.31-4.015,0.872-9.338-2.88-10.56
	c-3.753-1.222-10.123-1.135-15.011,4.363c0,0,6.721-18.763,7.157-21.555c0.436-2.792-0.611-6.196-5.935-6.196
	s-6.458,3.839-6.545,5.411c-0.262,2.967,1.222,4.887,1.222,7.33c0,2.444-3.927,18.85-6.021,22.341
	c-2.094,3.49-8.204,6.981-8.204,6.981s5.935-17.019-4.974-19.024c-6.458-1.048-11.171,3.839-11.171,3.839s0.404-4.362-4.887-4.275
	c-5.29,0.087-6.981,2.356-7.068,4.626c-0.087,2.269,1.571,4.887,0.873,7.592c-0.699,2.705-9.009,24.261-15.989,20.508
	c-6.283-3.403,4.014-23.737,4.975-24.958c0.227-0.29,3.839-4.713-0.088-6.633c-5.115-2.501-6.807,2.88-6.807,2.88
	s-0.436-2.531-6.457-3.578c-6.021-1.048-15.011,5.672-19.287,15.185c-4.275,9.512-5.585,20.507,3.491,22.603
	c9.076,2.094,14.573-5.76,14.573-5.76s-0.959,4.538,5.236,5.848c6.196,1.309,15.901-10.211,17.385-14.399
	c0,0-5.846,23.037-7.243,27.053c-1.396,4.014,0,7.068,3.316,7.767c3.316,0.697,6.458-1.659,6.895-6.371
	c0.437-4.713,2.442-17.104,3.84-21.031c0,0-0.437,5.76,4.624,6.895c5.063,1.134,14.487-3.055,17.891-15.098
	c0,0,5.411-2.793,8.553-7.33c0,0-4.189,11.169-5.062,13.7c-0.873,2.53-2.269,7.505,2.094,8.552c4.363,1.048,7.069-2.007,7.243-3.927
	c0.175-1.919,2.095-13.874,3.753-17.977c1.657-4.102,4.887-12.218,10.036-10.908c5.148,1.309-1.571,13.352-2.968,17.715
	c-1.396,4.364-4.8,13.788,2.53,15.097c7.331,1.31,14.749-7.155,14.749-7.155v-1.396
	C326.168,188.617,321.282,192.719,317.791,190.013z M234.532,179.511c-2.398,5.559-6.044,7.64-8.903,6.405
	c-2.858-1.232-3.847-5.313-1.448-10.871c2.397-5.559,6.343-10.892,10.133-9.256C237.733,167.264,236.929,173.954,234.532,179.511z
	 M268.398,184.777c-4.801-2.531-1.223-9.6-1.223-9.6s1.223,9.6,9.513,6.634C276.688,181.811,274.332,187.57,268.398,184.777z
	 M277.648,179.017c0,0-6.981,1.921-5.848-10.21c0,0,3.055-4.799,6.545-3.315C281.836,166.974,280.178,175.875,277.648,179.017z"/>
<path fill="#FFFFFF" d="M333.325,165.448c0,0-1.179-2.356,0-4.059c1.178-1.701,3.665-2.486,6.545-1.701s5.367,2.095,4.319,4.843
	c-1.047,2.75-9.556,23.956-5.104,25.396c4.45,1.44,9.562-3.927,9.562-3.927s-1.702-11.65,4.974-19.505
	c6.676-7.854,14.138-7.724,17.935-6.283c3.796,1.439,7.592,6.283,5.497,10.473c-2.095,4.188-6.414,4.712-8.64,3.403
	c-2.225-1.31-2.749-4.451-2.486-5.367c0,0-4.844,1.832-6.808,8.771c-1.964,6.938,6.152,14.661,17.148,4.581
	c-0.001,0.001-5.629,19.374-20.159,14.792c-6.021-1.832-6.807-8.509-6.807-8.509s-9.562,10.734-19.248,8.901
	c-9.687-1.832-0.83-16.58,1.09-22.776C332.392,170.446,333.325,165.448,333.325,165.448z"/>
<circle fill="#FFFFFF" cx="341.179" cy="150.656" r="6.021"/>
<path d="M276.334,55.01c-3.78-21.555-22.37-25.05-32.983-25.568c-8.856,0.339-21.995,4.577-31.429,4.592v0.001
	c-0.017,0-0.035,0-0.054,0c-0.018,0-0.036,0-0.054,0v-0.001c-9.907-0.016-25.875-4.449-33.54-4.449s-27.28,5.274-30.812,25.425
	c-6.786,38.701,25.883,67.099,25.883,67.099h77.104C250.45,122.109,283.12,93.711,276.334,55.01z"/>
<path d="M165.26,9.642c1.662-1.879,6.528,13.42-5.078,14.871c0,0,3.67,5.476,15.276,5.476c0,0-28.054,25.685-27.674,23.806
	c0.829-4.108-3.002-7.092-6.826-2.442c-3.274,3.981-13.783,2.298-15.718,1.33c-1.935-0.967-1.736,0.906-2.416,1.935
	c-0.883,1.333-5.804,4.11-10.399,1.934c-4.595-2.177-11.122-11.606-7.738-15.233c3.386-3.627,6.772-2.176,8.707-4.352
	c1.933-2.176,15.956-24.664,24.903-24.664C147.246,12.302,158.302,21.025,165.26,9.642z"/>
<path d="M280.127,19.867c0,0-2.779,3.631-1.646,8.093c1.136,4.46,6.784,13.723,3.119,20.242c-3.664,6.519-9.913,5.552-9.913,5.552
	l0.236-7.89c0,0,3.738,4.842,6.521-1.244c2.783-6.083-8.154-15.202-0.2-26.205L280.127,19.867z"/>
<path fill="#FFFFFF" d="M157.246,20.752c0,0,7.673-3.135,8.327-7.934c0,0-0.032,2.69-0.469,4.217c0,0,1.559,0.036,1.777-1.055
	C166.881,15.981,165.099,23.37,157.246,20.752z"/>
<g>
	<g>
		<path d="M142.797,63.034l-4.255-3.248c-1.38-1.053-2.748-1.122-4.045,0.12l-7.11,7.49c-1.053,1.38-0.789,3.352,0.591,4.403
			l6.019,4.593c1.379,1.052,3.351,0.788,4.403-0.591l5.349-8.835C144.637,65.344,144.176,64.087,142.797,63.034z M136.956,75.41
			c-0.512,0.669-1.467,0.797-2.136,0.287l-6.388-4.875c-0.668-0.511-0.796-1.467-0.286-2.136c0.511-0.669,1.467-0.798,2.135-0.287
			l6.388,4.875C137.338,73.784,137.465,74.741,136.956,75.41z"/>
	</g>
</g>
<path d="M104.422,44.385c-3.052,0-5.526,2.474-5.526,5.525c0,3.052,2.474,5.525,5.526,5.525c3.051,0,5.525-2.474,5.525-5.525
	C109.947,46.858,107.474,44.385,104.422,44.385z M104.422,53.291c-1.868,0-3.381-1.514-3.381-3.381c0-1.867,1.514-3.381,3.381-3.381
	c1.867,0,3.381,1.514,3.381,3.381C107.803,51.777,106.289,53.291,104.422,53.291z"/>
<path d="M282.865,13.426c-2.589-0.563-5.144,0.888-6.044,3.301c0.007-0.038,0.011-0.076,0.019-0.114
	c0.708-3.25,3.917-5.312,7.168-4.604c0.422,0.092,0.824,0.227,1.203,0.398c0.658-0.8,0.984-2.008,0.153-3.479
	c-1.505-2.661-5.669-3.953-7.867-6.305C275.818,0.825,276.822,0,276.822,0s-1.874,0.773-1.773,2.931
	c0.077,1.658,2.408,2.562,2.083,5.013c-0.31,2.313-3.635,5.283-3.635,5.283s0.735-0.914-0.052,0.061
	c-0.786,0.974-1.443,2.735-1.443,4.373c0,4.058,3.289,7.347,7.346,7.347c4.058,0,7.347-3.289,7.347-7.347
	c0-0.372-0.028-0.738-0.083-1.096C285.974,15.023,284.619,13.808,282.865,13.426z"/>
<path fill="#FFFFFF" d="M245.466,96.354c-3.023-6.527-10.996-7.482-15.452-0.16c-4.398,7.225-13.888,8.713-18.116,8.752
	c-4.229-0.039-13.718-1.527-18.116-8.752c-4.457-7.322-12.428-6.368-15.453,0.16c-3.024,6.527,7.959,28.973,7.959,28.973h25.43
	h0.359h25.43C237.507,125.327,248.491,102.88,245.466,96.354z"/>
<circle cx="224.77" cy="102.364" r="1.96"/>
<rect x="222.81" y="89.917" width="3.92" height="12.432"/>
<ellipse transform="matrix(0.995 0.0996 -0.0996 0.995 13.0157 -17.1807)" cx="178.553" cy="121.746" rx="5.72" ry="2.058"/>
<ellipse transform="matrix(-0.995 0.0996 -0.0996 -0.995 501.3434 218.4596)" cx="245.218" cy="121.746" rx="5.72" ry="2.057"/>
</svg>
